# xmcd
#
# Track frame offsets:
#	183
#	11555
#	24743
#	38325
#	49660
#	59045
#	70340
#	81548
#	93363
#	104593
#	116523
#	126150
#	136935
#	147425
#	157315
#
# Disc length: 2257
#
# Revision: 1
# Processed by: cddbd v1.5.1PL0 Copyright (c) Steve Scherf et al.
# Submitted via: dBpowerAMP V4.0
# Normalized: r0:TDELIM( - )
#
DISCID=da08cf0f
DTITLE=Various Artist - The World Of Country And Western Songs
DYEAR=1900
DGENRE=Country
TTITLE0=Bobby Bare - How I Got To Memphis
TTITLE1=Dave Duddley - I've Been Known Not To Go Home
TTITLE2=Freddy Quinn - Oh, Lonesome Me
TTITLE3=Buddy Meredith - A New Girl In Town
TTITLE4=Bobby Bare - That's All Right Mama
TTITLE5=Barbara Perry - I'll Hold You Closer Than Love
TTITLE6=Ferlin Husky - The Bridge I Have Never Crossed
TTITLE7=Billy Grammer - Papa And Mama
TTITLE8=Freddy Quinn - Older Men Make Better Lovers
TTITLE9=George Kent - Hittin' the Bottle, Missin' You
TTITLE10=Dave Duddley - Rolling On Your Track
TTITLE11=Freddy Quinn - Tom Dooley
TTITLE12=Bobby Bare - The World Is Weighing Heavy On My Mind
TTITLE13=Ronnie Rodgers - The Fool On The Stool
TTITLE14=Ferlin Husky - Out Off The Clear Blue Sky
EXTD=
EXTT0=
EXTT1=
EXTT2=
EXTT3=
EXTT4=
EXTT5=
EXTT6=
EXTT7=
EXTT8=
EXTT9=
EXTT10=
EXTT11=
EXTT12=
EXTT13=
EXTT14=
PLAYORDER=
